<svg xmlns="http://www.w3.org/2000/svg" viewBox="0 0 800 600" role="img" aria-label="SU MISURA — Lavorazione">
  <defs>
    <linearGradient id="bg8" x1="0" y1="0" x2="1" y2="1">
      <stop offset="0" stop-color="#F5F1EA"/>
      <stop offset="1" stop-color="#ECE6DA"/>
    </linearGradient>
  </defs>
  <rect width="800" height="600" fill="url(#bg8)"/>
  <g><line x1="-600" y1="0" x2="0" y2="600" stroke="#B7A48A" stroke-width="1" opacity="0.06" /><line x1="-566" y1="0" x2="34" y2="600" stroke="#B7A48A" stroke-width="1" opacity="0.06" /><line x1="-532" y1="0" x2="68" y2="600" stroke="#B7A48A" stroke-width="1" opacity="0.06" /><line x1="-498" y1="0" x2="102" y2="600" stroke="#B7A48A" stroke-width="1" opacity="0.06" /><line x1="-464" y1="0" x2="136" y2="600" stroke="#B7A48A" stroke-width="1" opacity="0.06" /><line x1="-430" y1="0" x2="170" y2="600" stroke="#B7A48A" stroke-width="1" opacity="0.06" /><line x1="-396" y1="0" x2="204" y2="600" stroke="#B7A48A" stroke-width="1" opacity="0.06" /><line x1="-362" y1="0" x2="238" y2="600" stroke="#B7A48A" stroke-width="1" opacity="0.06" /><line x1="-328" y1="0" x2="272" y2="600" stroke="#B7A48A" stroke-width="1" opacity="0.06" /><line x1="-294" y1="0" x2="306" y2="600" stroke="#B7A48A" stroke-width="1" opacity="0.06" /><line x1="-260" y1="0" x2="340" y2="600" stroke="#B7A48A" stroke-width="1" opacity="0.06" /><line x1="-226" y1="0" x2="374" y2="600" stroke="#B7A48A" stroke-width="1" opacity="0.06" /><line x1="-192" y1="0" x2="408" y2="600" stroke="#B7A48A" stroke-width="1" opacity="0.06" /><line x1="-158" y1="0" x2="442" y2="600" stroke="#B7A48A" stroke-width="1" opacity="0.06" /><line x1="-124" y1="0" x2="476" y2="600" stroke="#B7A48A" stroke-width="1" opacity="0.06" /><line x1="-90" y1="0" x2="510" y2="600" stroke="#B7A48A" stroke-width="1" opacity="0.06" /><line x1="-56" y1="0" x2="544" y2="600" stroke="#B7A48A" stroke-width="1" opacity="0.06" /><line x1="-22" y1="0" x2="578" y2="600" stroke="#B7A48A" stroke-width="1" opacity="0.06" /><line x1="12" y1="0" x2="612" y2="600" stroke="#B7A48A" stroke-width="1" opacity="0.06" /><line x1="46" y1="0" x2="646" y2="600" stroke="#B7A48A" stroke-width="1" opacity="0.06" /><line x1="80" y1="0" x2="680" y2="600" stroke="#B7A48A" stroke-width="1" opacity="0.06" /><line x1="114" y1="0" x2="714" y2="600" stroke="#B7A48A" stroke-width="1" opacity="0.06" /><line x1="148" y1="0" x2="748" y2="600" stroke="#B7A48A" stroke-width="1" opacity="0.06" /><line x1="182" y1="0" x2="782" y2="600" stroke="#B7A48A" stroke-width="1" opacity="0.06" /><line x1="216" y1="0" x2="816" y2="600" stroke="#B7A48A" stroke-width="1" opacity="0.06" /><line x1="250" y1="0" x2="850" y2="600" stroke="#B7A48A" stroke-width="1" opacity="0.06" /><line x1="284" y1="0" x2="884" y2="600" stroke="#B7A48A" stroke-width="1" opacity="0.06" /><line x1="318" y1="0" x2="918" y2="600" stroke="#B7A48A" stroke-width="1" opacity="0.06" /><line x1="352" y1="0" x2="952" y2="600" stroke="#B7A48A" stroke-width="1" opacity="0.06" /><line x1="386" y1="0" x2="986" y2="600" stroke="#B7A48A" stroke-width="1" opacity="0.06" /><line x1="420" y1="0" x2="1020" y2="600" stroke="#B7A48A" stroke-width="1" opacity="0.06" /><line x1="454" y1="0" x2="1054" y2="600" stroke="#B7A48A" stroke-width="1" opacity="0.06" /><line x1="488" y1="0" x2="1088" y2="600" stroke="#B7A48A" stroke-width="1" opacity="0.06" /><line x1="522" y1="0" x2="1122" y2="600" stroke="#B7A48A" stroke-width="1" opacity="0.06" /><line x1="556" y1="0" x2="1156" y2="600" stroke="#B7A48A" stroke-width="1" opacity="0.06" /><line x1="590" y1="0" x2="1190" y2="600" stroke="#B7A48A" stroke-width="1" opacity="0.06" /><line x1="624" y1="0" x2="1224" y2="600" stroke="#B7A48A" stroke-width="1" opacity="0.06" /><line x1="658" y1="0" x2="1258" y2="600" stroke="#B7A48A" stroke-width="1" opacity="0.06" /><line x1="692" y1="0" x2="1292" y2="600" stroke="#B7A48A" stroke-width="1" opacity="0.06" /><line x1="726" y1="0" x2="1326" y2="600" stroke="#B7A48A" stroke-width="1" opacity="0.06" /><line x1="760" y1="0" x2="1360" y2="600" stroke="#B7A48A" stroke-width="1" opacity="0.06" /><line x1="794" y1="0" x2="1394" y2="600" stroke="#B7A48A" stroke-width="1" opacity="0.06" /></g>
  <rect x="24" y="24" width="752" height="552" fill="none" stroke="#B7A48A" stroke-width="1.5" opacity="0.55"/>
  <g fill="none" stroke="#C9B89C" stroke-width="1.5" opacity="0.9">
    <circle cx="400" cy="242" r="60"/>
  </g>
  <text x="400" y="256" text-anchor="middle" font-family="Georgia, 'Times New Roman', serif" font-size="42" letter-spacing="2" fill="#3B332B">1684</text>
  <text x="400" y="368" text-anchor="middle" font-family="Georgia, 'Times New Roman', serif" font-size="40" letter-spacing="10" fill="#3B332B">SU MISURA</text>
  <line x1="310" y1="398" x2="380" y2="398" stroke="#B7A48A" stroke-width="1.5"/>
  <line x1="420" y1="398" x2="490" y2="398" stroke="#B7A48A" stroke-width="1.5"/>
  <text x="400" y="430" text-anchor="middle" font-family="Georgia, 'Times New Roman', serif" font-size="19" letter-spacing="4" fill="#7A6650">LAVORAZIONE</text>
</svg>
